<?xml version="1.0" encoding="UTF-8" standalone="no"?>
<!-- Created with Inkscape (http://www.inkscape.org/) -->

<svg
   xmlns:dc="http://purl.org/dc/elements/1.1/"
   xmlns:cc="http://creativecommons.org/ns#"
   xmlns:rdf="http://www.w3.org/1999/02/22-rdf-syntax-ns#"
   xmlns:svg="http://www.w3.org/2000/svg"
   xmlns="http://www.w3.org/2000/svg"
   xmlns:sodipodi="http://sodipodi.sourceforge.net/DTD/sodipodi-0.dtd"
   xmlns:inkscape="http://www.inkscape.org/namespaces/inkscape"
   width="210mm"
   height="297mm"
   viewBox="0 0 210 297"
   version="1.1"
   id="svg8"
   inkscape:version="0.92.1 r15371"
   sodipodi:docname="crosssticks.svg"
   inkscape:export-filename="/home/thecap/public_html/pucku_map_branch/tourist/static/crosssticks60.png"
   inkscape:export-xdpi="6.9200001"
   inkscape:export-ydpi="6.9200001">
  <defs
     id="defs2" />
  <sodipodi:namedview
     id="base"
     pagecolor="#ffffff"
     bordercolor="#666666"
     borderopacity="1.0"
     inkscape:pageopacity="0.0"
     inkscape:pageshadow="2"
     inkscape:zoom="1.026666"
     inkscape:cx="323.07054"
     inkscape:cy="414.01283"
     inkscape:document-units="mm"
     inkscape:current-layer="layer1"
     showgrid="false"
     inkscape:window-width="1920"
     inkscape:window-height="1045"
     inkscape:window-x="0"
     inkscape:window-y="0"
     inkscape:window-maximized="1" />
  <metadata
     id="metadata5">
    <rdf:RDF>
      <cc:Work
         rdf:about="">
        <dc:format>image/svg+xml</dc:format>
        <dc:type
           rdf:resource="http://purl.org/dc/dcmitype/StillImage" />
        <dc:title />
      </cc:Work>
    </rdf:RDF>
  </metadata>
  <g
     inkscape:label="Layer 1"
     inkscape:groupmode="layer"
     id="layer1">
    <path
       style="fill:#000000;fill-opacity:1;stroke:#000000;stroke-width:0.26458332px;stroke-linecap:butt;stroke-linejoin:miter;stroke-opacity:1"
       d="m -13.512174,187.28511 6.557491,3.32175 4.7661966,1.99179 5.6920716,2.2495 5.7270799,0.9291 7.1079539,0.1496 8.797446,-0.54402 15.463184,-7.1683 17.289486,-7.15875 23.904327,-14.79481 26.538818,-18.88331 26.64061,-16.85973 19.60579,-9.50683 7.70931,-2.0108 5.02393,1.06591 6.58294,3.82765 0.24816,0.90043 2.98124,4.82032 -0.41365,3.87533 c 0,0 0.38498,1.60358 -1.5368,3.72895 -1.92176,2.12538 -6.50981,3.67484 -6.50981,3.67484 l -7.68386,2.51669 -10.64286,4.18706 -20.59213,10.06363 -12.29102,7.71876 -3.01946,2.4849 -2.74585,3.89122 -2.10315,4.56893 -3.84353,4.25075 -17.712696,12.86037 -25.775194,17.93198 -29.478708,16.90106 -19.373518,8.07507 -6.6975195,1.9599 -9.9714912,-0.61414 -6.5924993,-2.00134 -7.858793,-7.00938 c 0,0 -4.49569,-10.72877 -5.163843,-11.91237 -0.668152,-1.1836 -3.474352,-12.60598 -3.474352,-12.60598 l -0.251279,-11.04373 3.757631,-3.94212 4.339876,-2.4499 z"
       id="path25"
       inkscape:connector-curvature="0"
       sodipodi:nodetypes="cccccccccccccccccccccccccccccccccccccsccccc" />
    <path
       style="fill:#d0000a;fill-opacity:1;stroke:#000000;stroke-width:0.24861409;stroke-opacity:0.99593494"
       d="m 121.32715,246.09947 c 0,9.90544 -16.33843,19.73936 -36.492921,19.73936 -20.154491,0 -36.492927,-9.83392 -36.492924,-19.73936 1e-6,-1.83711 -0.499124,-12.90843 -0.0046,-14.81384 3.039298,-11.71033 20.080978,-3.12153 36.49752,-3.12153 15.885745,0 35.302645,-5.90604 36.345925,2.61027 0.31605,2.57995 0.147,13.22712 0.147,15.3251 z"
       id="path4517-6"
       inkscape:connector-curvature="0"
       sodipodi:nodetypes="cssssssc" />
    <path
       style="fill:#ffffff;fill-opacity:1;stroke:#000000;stroke-width:0.26458332px;stroke-linecap:butt;stroke-linejoin:miter;stroke-opacity:1"
       d="m 180.64678,185.66073 -6.69605,3.03276 -4.8485,1.78212 -5.78471,1.99925 -5.76214,0.67857 -7.10772,-0.16039 -8.76537,-0.92699 -15.13601,-7.83553 -16.96101,-7.9056 -23.236688,-15.82276 -25.690459,-20.02219 -25.880369,-18.00499 -19.172725,-10.35245 -7.6143372,-2.34494 -5.0656079,0.8459 -6.7435369,3.53705 -0.287172,0.88875 -3.188525,4.68578 0.244333,3.88968 c 0,0 -0.454516,1.58528 1.372782,3.7924 1.827293,2.20713 6.34345,3.95511 6.34345,3.95511 l 7.5668429,2.84925 10.4502221,4.64701 20.133899,10.95165 11.942872,8.24721 2.908275,2.61415 2.573609,4.00721 1.901994,4.65626 3.6546,4.41426 17.135268,13.62025 24.969023,19.03849 28.71397,18.17 19.00309,8.91189 6.60573,2.24998 9.98878,-0.17888 6.67348,-1.71207 8.15686,-6.66015 c 0,0 4.95908,-10.5226 5.6782,-11.67595 0.71908,-1.15337 4.02055,-12.44255 4.02055,-12.44255 l 0.73244,-11.02228 -3.58221,-4.10217 -4.22897,-2.63675 z"
       id="path25-3"
       inkscape:connector-curvature="0"
       sodipodi:nodetypes="cccccccccccccccccccccccccccccccccccccsccccc" />
    <ellipse
       style="fill:#ff1621;fill-opacity:1;stroke-width:0.24861409;stroke:#000000;stroke-opacity:0.99593496"
       id="path4517"
       ry="17.935373"
       rx="36.492924"
       cy="231.79938"
       cx="84.753654" />
  </g>
</svg>
